<svg width="202" height="202" viewBox="0 0 202 202" fill="none" xmlns="http://www.w3.org/2000/svg">
<path d="M101 19C79.4958 19 62 36.1695 62 57.272V172.065C62 178.107 66.9872 183 73.1387 183C79.296 183 84.2861 178.107 84.2861 172.065V161.133C84.2861 152.091 91.7843 144.737 101 144.737C110.219 144.737 117.711 152.091 117.711 161.133V172.065C117.711 178.107 122.704 183 128.858 183C135.01 183 140 178.107 140 172.065V57.272C140 36.1695 122.498 19 101 19ZM101 122.867C95.0136 122.867 89.3573 124.237 84.2861 126.615V57.272C84.2861 48.224 91.7843 40.8697 101 40.8697C110.219 40.8697 117.711 48.224 117.711 57.272V126.615C112.64 124.237 106.984 122.867 101 122.867Z" fill="#002953"/>
</svg>
