<svg width="128" height="128" viewBox="0 0 128 128" fill="none" xmlns="http://www.w3.org/2000/svg">
<path d="M64.3134 0C47.8009 0 34.3662 13.4006 34.3662 29.8708V119.465C34.3662 124.181 38.1958 128 42.9194 128C47.6474 128 51.4792 124.181 51.4792 119.465V110.933C51.4792 103.876 57.2369 98.1359 64.3134 98.1359C71.3921 98.1359 77.1453 103.876 77.1453 110.933V119.465C77.1453 124.181 80.9794 128 85.7052 128C90.4288 128 94.2606 124.181 94.2606 119.465V29.8708C94.2606 13.4006 80.8215 0 64.3134 0ZM64.3134 81.0668C59.7166 81.0668 55.3733 82.1359 51.4792 83.9922V29.8708C51.4792 22.809 57.2369 17.069 64.3134 17.069C71.3921 17.069 77.1453 22.809 77.1453 29.8708V83.9922C73.2513 82.1359 68.908 81.0668 64.3134 81.0668Z" fill="#002953"/>
</svg>
