<svg width="128" height="128" viewBox="0 0 128 128" fill="none" xmlns="http://www.w3.org/2000/svg">
<rect width="128" height="128" fill="#242424"/>
<path fill-rule="evenodd" clip-rule="evenodd" d="M34.5431 67.6754C33.6909 67.6754 33 66.9532 33 66.0623V64.9606C33 64.0697 33.6909 63.3475 34.5431 63.3475H79.5186C80.2858 59.3966 83.627 56.4229 87.6328 56.4229C92.2057 56.4229 95.9126 60.2981 95.9126 65.0787C95.9126 69.8592 92.2057 73.7344 87.6328 73.7344C83.9253 73.7344 80.7871 71.1872 79.732 67.6754H34.5431ZM87.6328 69.4065C89.9193 69.4065 91.7727 67.4687 91.7727 65.0787C91.7727 62.6886 89.9193 60.7508 87.6328 60.7508C85.3464 60.7508 83.4929 62.6886 83.4929 65.0787C83.4929 67.4687 85.3464 69.4065 87.6328 69.4065Z" fill="url(#paint0_linear_3826_4746)"/>
<path fill-rule="evenodd" clip-rule="evenodd" d="M37.7184 52.8325V51.7308C37.7184 50.8399 38.4093 50.1177 39.2615 50.1177H60.8847C64.7368 50.1177 68.4225 48.5524 71.0915 45.783L74.5111 42.2348C72.3296 38.8847 72.6421 34.3589 75.4746 31.4538C78.7082 28.1374 84.0011 28.1892 87.297 31.5696C90.5929 34.9499 90.6434 40.3784 87.4099 43.6948C84.7883 46.3836 80.813 46.8583 77.6458 45.1403L72.7419 50.1698C70.0767 52.9033 66.4158 54.4456 62.5922 54.4456H39.2615C38.4093 54.4456 37.7184 53.7234 37.7184 52.8325ZM84.4261 40.6345C86.0428 38.9764 86.0174 36.2619 84.3696 34.5719C82.7218 32.8819 80.0752 32.8558 78.4584 34.514C76.8417 36.1722 76.8671 38.8866 78.5149 40.5766C80.1627 42.2667 82.8093 42.2927 84.4261 40.6345Z" fill="url(#paint1_linear_3826_4746)"/>
<path fill-rule="evenodd" clip-rule="evenodd" d="M36.1456 77.3938V78.4954C36.1456 79.3863 36.8365 80.1085 37.6887 80.1085H59.2779C63.1499 80.1085 66.853 81.69 69.5245 84.4846L69.7927 84.7652C67.6112 88.1153 67.9237 92.6411 70.7562 95.5462C73.9897 98.8626 79.2826 98.8108 82.5785 95.4304C85.8744 92.0501 85.925 86.6216 82.6914 83.3052C80.0698 80.6164 76.0946 80.1417 72.9274 81.8597L71.1691 80.0564C68.5039 77.3229 64.843 75.7807 61.0194 75.7807H37.6887C36.8365 75.7807 36.1456 76.5029 36.1456 77.3938ZM79.7076 86.3654C81.3244 88.0236 81.299 90.738 79.6512 92.4281C78.0034 94.1181 75.3568 94.1442 73.74 92.486C72.1232 90.8278 72.1486 88.1134 73.7964 86.4233C75.4442 84.7333 78.0908 84.7073 79.7076 86.3654Z" fill="url(#paint2_linear_3826_4746)"/>
<defs>
<linearGradient id="paint0_linear_3826_4746" x1="396.32" y1="63.4996" x2="-238.311" y2="63.4996" gradientUnits="userSpaceOnUse">
<stop stop-color="#8456E4"/>
<stop offset="1" stop-color="#2C88D9"/>
</linearGradient>
<linearGradient id="paint1_linear_3826_4746" x1="396.32" y1="63.4996" x2="-238.311" y2="63.4996" gradientUnits="userSpaceOnUse">
<stop stop-color="#8456E4"/>
<stop offset="1" stop-color="#2C88D9"/>
</linearGradient>
<linearGradient id="paint2_linear_3826_4746" x1="396.32" y1="63.4996" x2="-238.311" y2="63.4996" gradientUnits="userSpaceOnUse">
<stop stop-color="#8456E4"/>
<stop offset="1" stop-color="#2C88D9"/>
</linearGradient>
</defs>
</svg>
